<svg width="24" height="18" viewBox="0 0 24 18" fill="none" xmlns="http://www.w3.org/2000/svg">
<path d="M6.98106 0C7.67342 0 8.31378 0.0642855 8.89887 0.254571C9.48505 0.381856 9.96505 0.636427 10.3909 0.953998C10.8178 1.27285 11.1374 1.71771 11.3498 2.28985C11.5632 2.86199 11.6705 3.56271 11.6705 4.32513C11.6705 5.21613 11.5101 5.97856 11.1374 6.5507C10.8178 7.12413 10.2847 7.63199 9.64541 8.01384C10.5512 8.3327 11.2436 8.90484 11.6705 9.66855C12.0963 10.431 12.3629 11.385 12.3629 12.4663C12.3629 13.3573 12.2025 14.1197 11.936 14.7561C11.6705 15.3925 11.2436 15.9647 10.7636 16.3465C10.2422 16.7558 9.66581 17.0567 9.05923 17.2363C8.41996 17.4278 7.78069 17.5551 7.14142 17.5551H0V0H6.98106ZM6.55415 7.12284C7.14033 7.12284 7.62033 6.93256 7.99306 6.61499C8.36578 6.29742 8.52614 5.72399 8.52614 5.02456C8.52614 4.64271 8.47197 4.26213 8.36578 4.00756C8.2596 3.75299 8.09924 3.56142 7.88687 3.37114C7.67342 3.24385 7.45997 3.11657 7.19343 3.05357C6.92688 2.98928 6.66142 2.98928 6.3407 2.98928H3.25053V7.12413H6.55524L6.55415 7.12284ZM6.71451 14.6288C7.03415 14.6288 7.35379 14.5645 7.62033 14.5015C7.88687 14.4373 8.15342 14.3113 8.36578 14.1197C8.5829 13.9336 8.76454 13.6952 8.89887 13.4203C9.00506 13.1027 9.11232 12.7208 9.11232 12.276C9.11232 11.385 8.89887 10.7498 8.47305 10.3037C8.04615 9.92184 7.45997 9.73155 6.76761 9.73155H3.25053V14.6301L6.71451 14.6288ZM16.9992 14.5645C17.425 15.0737 18.0643 15.3283 18.917 15.3283C19.5032 15.3283 20.0363 15.138 20.4621 14.8204C20.889 14.4385 21.1555 14.0567 21.2617 13.6761H23.873C23.4461 15.201 22.8068 16.2823 21.9552 16.983C21.1014 17.6181 20.0894 18 18.8639 18C18.0799 18.0028 17.3024 17.8301 16.5723 17.4908C15.9153 17.1985 15.3295 16.7179 14.8668 16.092C14.372 15.5064 14.0062 14.7854 13.8018 13.9924C13.5352 13.1657 13.4279 12.276 13.4279 11.2577C13.4279 10.3037 13.5352 9.41398 13.8018 8.58598C14.0585 7.78931 14.438 7.05638 14.921 6.4247C15.4076 5.83179 15.9864 5.35632 16.6254 5.02456C17.3369 4.68521 18.0971 4.51233 18.8639 4.51542C19.7697 4.51542 20.5694 4.70699 21.2617 5.15185C21.9552 5.5967 22.4872 6.10585 22.913 6.86956C23.3399 7.56899 23.6606 8.3957 23.873 9.2867C23.9792 10.1764 24.0323 11.0674 23.9792 12.0844H16.2527C16.2527 13.1027 16.5723 14.0567 16.9992 14.5658V14.5645ZM20.3559 7.88656C19.9832 7.4417 19.397 7.18713 18.7036 7.18713C18.2246 7.18713 17.8508 7.3157 17.5312 7.50599C17.2116 7.69627 16.9992 7.95084 16.7857 8.20541C16.5897 8.45136 16.4599 8.76115 16.413 9.09512C16.3588 9.41398 16.3057 9.66855 16.3057 9.92184H21.1014C20.9952 8.96784 20.7286 8.3327 20.3559 7.88656ZM15.6665 1.20857H21.6345V2.92628H15.6676V1.20857H15.6665Z" fill="black"/>
</svg>
