<svg width="24" height="18" viewBox="0 0 24 18" fill="none" xmlns="http://www.w3.org/2000/svg">
<path d="M24 2.45878V16.3635C24 17.2672 23.268 17.999 22.364 17.999H18.545V8.72985L12 13.6383L5.455 8.72985V18H1.636C1.42107 18 1.20825 17.9577 1.0097 17.8754C0.811145 17.7932 0.63075 17.6726 0.47882 17.5206C0.32689 17.3686 0.206404 17.1882 0.124246 16.9897C0.0420884 16.7911 -0.000131068 16.5784 3.05652e-07 16.3635V2.45878C3.05652e-07 0.436397 2.309 -0.718248 3.927 0.495379L5.455 1.64203L12 6.54852L18.545 1.64003L20.073 0.495379C21.69 -0.717249 24 0.436397 24 2.45878Z" fill="black"/>
</svg>
