<?xml version="1.0" encoding="UTF-8"?>
<svg id="Calque_2" data-name="Calque 2" xmlns="http://www.w3.org/2000/svg" viewBox="0 0 86.56 51.71">
  <defs>
    <style>
      .cls-1 {
        fill: #ede300;
      }
    </style>
  </defs>
  <g id="Calque_1-2" data-name="Calque 1">
    <g>
      <path class="cls-1" d="m52.37,45.74c-.53-.47-1.04-.98-1.53-1.52-4.43-4.83-6.65-10.92-6.65-18.28s2.17-13.17,6.51-18.14c.52-.6,1.06-1.17,1.62-1.7.04-1.75.06-3.23.06-4.45,0-.56-.35-.85-1.05-.85-.59,0-1.49.06-2.69.18-1.21.12-2.11.18-2.69.18-.7,0-1.74-.04-3.11-.11-1.37-.07-2.4-.11-3.08-.11-.47,0-.9.46-1.3,1.38-4.64,9.91-8.14,17.33-10.51,22.25-.85,1.76-1.4,2.64-1.65,2.64-.5,0-1.11-.77-1.83-2.29L14.2,2.39c-.47-.99-.83-1.48-1.09-1.48-1.29,0-3.22.04-5.8.12-2.58.08-4.51.13-5.8.13C.5,1.16.01,1.39.03,1.86l.04.6c.19,3.84.29,6.73.32,8.68.23,7.48.35,12.57.35,15.29,0,2.56-.13,6.4-.37,11.52-.25,5.12-.37,8.96-.37,11.51,0,.38.05.64.16.79.1.15.39.23.86.23h11.74c.66,0,.99-.41.99-1.23,0-2.3-.06-5.74-.18-10.34-.12-4.59-.18-8.04-.18-10.33,0-.47.09-.81.25-1.02.16.14.27.27.32.38,1.1,2.32,2.75,6.09,4.95,11.29,2.07,4.92,3.73,8.67,5,11.25.23.47.96.7,2.18.7.82,0,1.28-.01,1.4-.03.35-.1.65-.41.88-.95,1.69-4.15,3.38-8.31,5.06-12.48,2.89-7.1,4.46-10.72,4.71-10.87.21.05.32.41.32,1.09,0,2.37-.09,5.92-.26,10.66-.18,4.73-.27,8.28-.27,10.65,0,.82.34,1.23,1.02,1.23h12.45c.68,0,1.02-.36,1.02-1.09,0-1.01-.02-2.23-.05-3.65Z"/>
      <path class="cls-1" d="m83.99,38.25c-1.66-2.51-2.68-3.98-3.06-4.4-.23-.26-.47-.39-.7-.39-.12,0-.69.45-1.72,1.34-1.25,1.05-2.46,1.88-3.66,2.46-1.83.89-3.76,1.34-5.8,1.34-3.45,0-6.2-1.32-8.26-3.94-1.9-2.41-2.85-5.4-2.85-8.97s.95-6.46,2.85-8.85c2.06-2.58,4.81-3.87,8.26-3.87,1.99,0,3.91.47,5.77,1.4,1.21.64,2.46,1.52,3.72,2.64,1.06.94,1.64,1.41,1.76,1.41.28,0,.52-.1.7-.28.42-.36,1.45-1.96,3.08-4.82s2.44-4.51,2.44-4.96c0-.4-.23-.85-.7-1.37-4.31-4.66-10.27-6.99-17.86-6.99-6.17,0-11.39,2.03-15.64,6.1-.05,2.22-.13,4.86-.24,7.94-.2,5.5-.3,9.63-.3,12.39,0,2.56.11,6.39.32,11.5.13,3.07.22,5.67.27,7.81,4.33,3.98,9.74,5.97,16.26,5.97,7.15,0,12.88-2.57,17.19-7.7.49-.61.74-1.1.74-1.48,0-.25-.86-1.68-2.57-4.28Z"/>
    </g>
  </g>
</svg>