<svg width="84" height="84" viewBox="0 0 84 84" fill="none" xmlns="http://www.w3.org/2000/svg">
<path d="M82.2302 73.744C83.357 74.8707 83.99 76.3988 83.99 77.9921C83.99 79.5855 83.357 81.1136 82.2302 82.2403C81.1035 83.367 79.5753 84 77.9818 84C76.3883 84 74.8601 83.367 73.7334 82.2403L42 50.4989L10.2566 82.2303C9.12989 83.357 7.60168 83.99 6.0082 83.99C4.41473 83.99 2.88652 83.357 1.75976 82.2303C0.633006 81.1037 1.679e-08 79.5755 0 77.9822C-1.679e-08 76.3888 0.633006 74.8607 1.75976 73.734L33.5031 42.0025L1.76976 10.261C0.643001 9.13434 0.00999655 7.60622 0.00999656 6.01284C0.00999658 4.41946 0.643001 2.89134 1.76976 1.76466C2.89651 0.637965 4.42472 0.00499705 6.0182 0.00499703C7.61167 0.00499701 9.13989 0.637965 10.2666 1.76466L42 33.5061L73.7434 1.75966C74.8701 0.632967 76.3983 -2.65457e-08 77.9918 0C79.5853 2.65457e-08 81.1135 0.632967 82.2402 1.75966C83.367 2.88635 84 4.41446 84 6.00784C84 7.60122 83.367 9.12935 82.2402 10.256L50.4969 42.0025L82.2302 73.744Z" fill="white"/>
</svg>
