<svg width="87" height="71" viewBox="0 0 87 71" fill="none" xmlns="http://www.w3.org/2000/svg">
<path d="M0 5.91667C0 4.34747 0.572879 2.84254 1.59261 1.73295C2.61234 0.623362 3.99539 0 5.4375 0H81.5625C83.0046 0 84.3877 0.623362 85.4074 1.73295C86.4271 2.84254 87 4.34747 87 5.91667C87 7.48586 86.4271 8.99079 85.4074 10.1004C84.3877 11.21 83.0046 11.8333 81.5625 11.8333H5.4375C3.99539 11.8333 2.61234 11.21 1.59261 10.1004C0.572879 8.99079 0 7.48586 0 5.91667ZM0 35.5C0 33.9308 0.572879 32.4259 1.59261 31.3163C2.61234 30.2067 3.99539 29.5833 5.4375 29.5833H81.5625C83.0046 29.5833 84.3877 30.2067 85.4074 31.3163C86.4271 32.4259 87 33.9308 87 35.5C87 37.0692 86.4271 38.5741 85.4074 39.6837C84.3877 40.7933 83.0046 41.4167 81.5625 41.4167H5.4375C3.99539 41.4167 2.61234 40.7933 1.59261 39.6837C0.572879 38.5741 0 37.0692 0 35.5ZM0 65.0833C0 63.5141 0.572879 62.0092 1.59261 60.8996C2.61234 59.79 3.99539 59.1667 5.4375 59.1667H81.5625C83.0046 59.1667 84.3877 59.79 85.4074 60.8996C86.4271 62.0092 87 63.5141 87 65.0833C87 66.6525 86.4271 68.1575 85.4074 69.2671C84.3877 70.3766 83.0046 71 81.5625 71H5.4375C3.99539 71 2.61234 70.3766 1.59261 69.2671C0.572879 68.1575 0 66.6525 0 65.0833Z" fill="white"/>
</svg>
